<?xml version="1.0" encoding="utf-8"?>
<!-- Generator: Adobe Illustrator 24.3.0, SVG Export Plug-In . SVG Version: 6.00 Build 0)  -->
<svg version="1.0" id="katman_1" xmlns="http://www.w3.org/2000/svg" xmlns:xlink="http://www.w3.org/1999/xlink" x="0px" y="0px"
	 viewBox="0 0 201.51 143.51" style="enable-background:new 0 0 201.51 143.51;" xml:space="preserve">
<style type="text/css">
	.st0{fill-rule:evenodd;clip-rule:evenodd;}
	.st1{fill-rule:evenodd;clip-rule:evenodd;fill:url(#SVGID_1_);}
</style>
<g>
	<g>
		<g>
			<path id="_x34_2302b53-1cfb-4a74-9e02-b7be13fd71b7" class="st0" d="M164,70.8c2.21,0,3.07,1.35,3.18,2.53
				c0.01,0.07-0.05,0.13-0.12,0.14c0,0-0.01,0-0.01,0h-6.08c-0.07,0-0.13-0.06-0.13-0.13c0-0.01,0-0.01,0-0.02
				C161.02,72.18,162.04,70.8,164,70.8z M167.33,78.29c-0.08,0-0.16,0.04-0.21,0.1c-0.55,0.77-1.44,1.25-2.77,1.25
				c-1.84,0-3.43-1.21-3.6-2.92c-0.01-0.07,0.05-0.13,0.12-0.14c0,0,0.01,0,0.01,0h10.92c0.03-0.1,0.1-0.83,0.1-1.5
				c0-5.09-3.04-8.12-7.96-8.12c-4.12,0-7.93,3.25-7.93,8.34c0,5.32,3.9,8.44,8.28,8.44c3.96,0,6.46-2.21,7.28-4.89
				c0.01-0.02,0.03-0.12,0.06-0.26c0.03-0.14-0.06-0.27-0.2-0.3c-0.02,0-0.03-0.01-0.05-0.01H167.33L167.33,78.29z M176.98,75.24
				l-5.18-7.38c-0.08-0.12-0.05-0.27,0.06-0.36c0.04-0.03,0.09-0.05,0.15-0.05h5.09c0.09,0,0.17,0.04,0.21,0.11l2.66,4.05
				c0.05,0.08,0.16,0.08,0.21,0l2.6-4.04c0.05-0.07,0.13-0.12,0.21-0.12h4.8c0.21,0,0.33,0.23,0.21,0.4l-5.11,7.19
				c-0.06,0.09-0.06,0.2,0,0.29c1.67,2.38,3.58,5.13,5.3,7.54c0.12,0.17,0,0.4-0.21,0.4h-5.05c-0.09,0-0.17-0.04-0.21-0.11
				l-2.76-4.18c-0.04-0.06-0.12-0.07-0.18-0.04c-0.01,0.01-0.03,0.02-0.04,0.04c-0.83,1.23-1.91,2.94-2.73,4.18
				c-0.05,0.07-0.13,0.11-0.21,0.11h-4.71c-0.14,0-0.25-0.11-0.26-0.25c0-0.05,0.02-0.1,0.05-0.15l5.09-7.35
				C177.05,75.44,177.05,75.32,176.98,75.24L176.98,75.24z M149.55,83.02V60.49c0-0.14,0.12-0.26,0.26-0.26h4.35
				c0.14,0,0.26,0.11,0.26,0.26v22.53c0,0.14-0.12,0.25-0.26,0.25h-4.35C149.67,83.28,149.56,83.16,149.55,83.02L149.55,83.02z
				 M142.4,83.02V60.49c0-0.14,0.12-0.26,0.26-0.26H147c0.14,0,0.26,0.11,0.26,0.26v22.53c0,0.14-0.11,0.25-0.26,0.25h-4.35
				C142.51,83.28,142.4,83.16,142.4,83.02L142.4,83.02z M131.65,79.55c1.95,0,3.61-1.53,3.61-4.2c0-2.74-1.63-4.17-3.61-4.17
				c-2.08,0-3.64,1.43-3.64,4.17C128.01,77.96,129.64,79.55,131.65,79.55L131.65,79.55z M135.29,81.24c-0.7,1.53-2.3,2.48-4.28,2.48
				c-4.67,0-7.89-3.53-7.89-8.4c0-4.71,3.04-8.34,7.73-8.34c2.84,0,4.09,1.56,4.41,2.29v-1.56c0-0.14,0.11-0.25,0.26-0.25h4.19
				c0.14,0,0.26,0.11,0.26,0.26v15.31c0,0.14-0.11,0.25-0.26,0.25h-4.18c-0.14,0-0.26-0.11-0.26-0.25c0,0,0,0,0,0
				C135.27,82.44,135.29,81.11,135.29,81.24z M112.75,67.63l2.91,8.82c0.04,0.12,0.21,0.12,0.24-0.01l2.49-8.8
				c0.03-0.11,0.13-0.19,0.25-0.19h4.22c0.17,0,0.3,0.17,0.25,0.33l-4.76,15.31c-0.03,0.11-0.13,0.18-0.24,0.18h-4.45
				c-0.11,0-0.21-0.07-0.24-0.17l-3.27-9.68c-0.04-0.12-0.21-0.12-0.24,0l-3.21,9.68c-0.03,0.1-0.13,0.17-0.24,0.17h-4.55
				c-0.11,0-0.21-0.07-0.24-0.18l-4.82-15.31c-0.04-0.13,0.03-0.28,0.17-0.32c0.02-0.01,0.05-0.01,0.08-0.01h4.51
				c0.11,0,0.21,0.08,0.25,0.19l2.49,8.77c0.03,0.12,0.2,0.12,0.24,0.01l2.94-8.79c0.03-0.1,0.13-0.18,0.24-0.18h4.78
				C112.62,67.46,112.72,67.53,112.75,67.63L112.75,67.63z M95.5,71.92c0,0.14-0.11,0.25-0.26,0.25c-0.01,0-0.03,0-0.04,0
				c-0.41-0.07-0.82-0.1-1.24-0.1c-1.95,0-3.71,1.15-3.71,4.3v6.65c0,0.14-0.11,0.25-0.25,0.25h-4.35c-0.14,0-0.26-0.11-0.26-0.25
				l0,0V67.71c0-0.14,0.11-0.26,0.26-0.26h4.19c0.14,0,0.25,0.11,0.25,0.26v1.88c0.83-1.78,2.85-2.29,4.12-2.29
				c0.39,0,0.78,0.04,1.08,0.11c0.12,0.03,0.2,0.13,0.2,0.25C95.5,67.65,95.5,71.92,95.5,71.92z M78.15,83.02V67.71
				c0-0.14,0.11-0.26,0.26-0.26h4.35c0.14,0,0.26,0.11,0.26,0.26v15.31c0,0.14-0.11,0.25-0.26,0.25h-4.35
				C78.27,83.28,78.15,83.16,78.15,83.02C78.15,83.02,78.15,83.02,78.15,83.02z M80.55,59.79c1.6,0,2.88,1.27,2.88,2.83
				c0,1.56-1.28,2.83-2.88,2.83c-1.53,0-2.81-1.27-2.81-2.83C77.74,61.06,79.01,59.79,80.55,59.79z M62.67,74.11h5.14
				c0.09,0,0.15-0.09,0.12-0.17l-2.54-7.29c-0.02-0.07-0.1-0.1-0.16-0.08c-0.04,0.01-0.07,0.04-0.08,0.08l-2.6,7.29
				C62.52,74.02,62.59,74.11,62.67,74.11L62.67,74.11z M69.41,78.69h-8.4c-0.11,0-0.2,0.07-0.24,0.17l-1.51,4.24
				c-0.04,0.1-0.13,0.17-0.24,0.17h-4.75c-0.14,0-0.26-0.11-0.26-0.25c0-0.03,0.01-0.06,0.02-0.09l8.34-22.06
				c0.04-0.1,0.13-0.17,0.24-0.16h5.49c0.11,0,0.2,0.07,0.24,0.17l8.25,22.06c0.05,0.13-0.02,0.28-0.15,0.33
				c-0.03,0.01-0.06,0.02-0.09,0.02H71.4c-0.11,0-0.2-0.07-0.24-0.17l-1.51-4.24C69.61,78.76,69.51,78.69,69.41,78.69z"/>
		</g>
		
			<linearGradient id="SVGID_1_" gradientUnits="userSpaceOnUse" x1="-310.5693" y1="358.0541" x2="-309.5693" y2="357.0541" gradientTransform="matrix(35.9616 0 0 -23.97 11178.7568 8644.3486)">
			<stop  offset="0" style="stop-color:#FF4244"/>
			<stop  offset="1" style="stop-color:#FF8E3C"/>
		</linearGradient>
		<path class="st1" d="M47.87,69.17c1.27,1.24,1.69,3.11,1.06,4.77l-2.35,6.38c-0.62,1.67-2.02,2.97-3.76,3.31
			c-1.77,0.35-3.59-0.3-4.73-1.69L24.02,65.08c-0.11-0.13-0.31-0.15-0.44-0.04c-0.04,0.03-0.07,0.08-0.09,0.13l-4.58,12.39
			c-0.09,0.26,0.16,0.5,0.41,0.4l5.62-2.29c1.27-0.51,2.72,0.1,3.23,1.37c0.02,0.06,0.05,0.12,0.06,0.18
			c0.42,1.27-0.28,2.65-1.51,3.15l-7.34,3c-1.36,0.56-2.92,0.46-4.14-0.36c-1.72-1.15-2.42-3.32-1.7-5.26l5.41-14.63
			c0.64-1.73,2.1-2.96,3.91-3.27c1.79-0.32,3.61,0.35,4.77,1.76l8.08,9.68l7.43-3.04C44.78,67.56,46.59,67.92,47.87,69.17z
			 M43.58,74.04c0.09-0.26-0.16-0.5-0.41-0.4l-4.1,1.68l2.46,2.95c0.11,0.13,0.3,0.15,0.44,0.04c0.04-0.04,0.07-0.08,0.09-0.13
			L43.58,74.04L43.58,74.04z"/>
	</g>
</g>
</svg>
